<svg width="1512" height="302" viewBox="0 0 1512 302" fill="none" xmlns="http://www.w3.org/2000/svg">
<path opacity="0.0714286" d="M0 228.808C556.881 409.408 1067.26 100.753 1512 228.808" stroke="url(#paint0_linear_131_669)" stroke-width="5"/>
<path opacity="0.142857" d="M0 213.908C556.881 394.508 1067.26 85.8524 1512 213.908" stroke="url(#paint1_linear_131_669)" stroke-width="5"/>
<path opacity="0.214286" d="M0 199.007C556.881 379.607 1067.26 70.9521 1512 199.007" stroke="url(#paint2_linear_131_669)" stroke-width="5"/>
<path opacity="0.285714" d="M0 184.107C556.881 364.707 1067.26 56.0518 1512 184.107" stroke="url(#paint3_linear_131_669)" stroke-width="5"/>
<path opacity="0.357143" d="M0 169.207C556.881 349.807 1067.26 41.1514 1512 169.207" stroke="url(#paint4_linear_131_669)" stroke-width="5"/>
<path opacity="0.428571" d="M0 154.307C556.881 334.906 1067.26 26.2511 1512 154.307" stroke="url(#paint5_linear_131_669)" stroke-width="5"/>
<path opacity="0.5" d="M0 139.406C556.881 320.006 1067.26 11.3507 1512 139.406" stroke="url(#paint6_linear_131_669)" stroke-width="5"/>
<path opacity="0.571429" d="M0 124.506C556.881 305.106 1067.26 -3.54958 1512 124.506" stroke="url(#paint7_linear_131_669)" stroke-width="5"/>
<path opacity="0.642857" d="M0 109.605C556.881 290.205 1067.26 -18.4499 1512 109.605" stroke="url(#paint8_linear_131_669)" stroke-width="5"/>
<path opacity="0.714286" d="M0 94.7052C556.881 275.305 1067.26 -33.3502 1512 94.7052" stroke="url(#paint9_linear_131_669)" stroke-width="5"/>
<path opacity="0.785714" d="M0 79.8048C556.881 260.405 1067.26 -48.2506 1512 79.8048" stroke="url(#paint10_linear_131_669)" stroke-width="5"/>
<path opacity="0.857143" d="M0 64.9045C556.881 245.504 1067.26 -63.1509 1512 64.9045" stroke="url(#paint11_linear_131_669)" stroke-width="5"/>
<path opacity="0.928571" d="M0 50.0042C556.881 230.604 1067.26 -78.0512 1512 50.0042" stroke="url(#paint12_linear_131_669)" stroke-width="5"/>
<path d="M0 35.1038C556.881 215.704 1067.26 -92.9516 1512 35.1038" stroke="url(#paint13_linear_131_669)" stroke-width="5"/>
<defs>
<linearGradient id="paint0_linear_131_669" x1="8.65401e-06" y1="242.399" x2="1512" y2="242.399" gradientUnits="userSpaceOnUse">
<stop stop-color="#EE7568"/>
<stop offset="1"/>
</linearGradient>
<linearGradient id="paint1_linear_131_669" x1="8.65401e-06" y1="227.499" x2="1512" y2="227.499" gradientUnits="userSpaceOnUse">
<stop stop-color="#EE7568"/>
<stop offset="1"/>
</linearGradient>
<linearGradient id="paint2_linear_131_669" x1="8.65401e-06" y1="212.599" x2="1512" y2="212.598" gradientUnits="userSpaceOnUse">
<stop stop-color="#EE7568"/>
<stop offset="1"/>
</linearGradient>
<linearGradient id="paint3_linear_131_669" x1="8.65401e-06" y1="197.698" x2="1512" y2="197.698" gradientUnits="userSpaceOnUse">
<stop stop-color="#EE7568"/>
<stop offset="1"/>
</linearGradient>
<linearGradient id="paint4_linear_131_669" x1="8.65401e-06" y1="182.798" x2="1512" y2="182.798" gradientUnits="userSpaceOnUse">
<stop stop-color="#EE7568"/>
<stop offset="1"/>
</linearGradient>
<linearGradient id="paint5_linear_131_669" x1="8.65401e-06" y1="167.898" x2="1512" y2="167.897" gradientUnits="userSpaceOnUse">
<stop stop-color="#EE7568"/>
<stop offset="1"/>
</linearGradient>
<linearGradient id="paint6_linear_131_669" x1="8.65401e-06" y1="152.997" x2="1512" y2="152.997" gradientUnits="userSpaceOnUse">
<stop stop-color="#EE7568"/>
<stop offset="1"/>
</linearGradient>
<linearGradient id="paint7_linear_131_669" x1="8.65401e-06" y1="138.097" x2="1512" y2="138.097" gradientUnits="userSpaceOnUse">
<stop stop-color="#EE7568"/>
<stop offset="1"/>
</linearGradient>
<linearGradient id="paint8_linear_131_669" x1="8.65401e-06" y1="123.197" x2="1512" y2="123.196" gradientUnits="userSpaceOnUse">
<stop stop-color="#EE7568"/>
<stop offset="1"/>
</linearGradient>
<linearGradient id="paint9_linear_131_669" x1="8.65401e-06" y1="108.296" x2="1512" y2="108.296" gradientUnits="userSpaceOnUse">
<stop stop-color="#EE7568"/>
<stop offset="1"/>
</linearGradient>
<linearGradient id="paint10_linear_131_669" x1="8.65401e-06" y1="93.3959" x2="1512" y2="93.3957" gradientUnits="userSpaceOnUse">
<stop stop-color="#EE7568"/>
<stop offset="1"/>
</linearGradient>
<linearGradient id="paint11_linear_131_669" x1="8.65401e-06" y1="78.4956" x2="1512" y2="78.4953" gradientUnits="userSpaceOnUse">
<stop stop-color="#EE7568"/>
<stop offset="1"/>
</linearGradient>
<linearGradient id="paint12_linear_131_669" x1="8.65401e-06" y1="63.5953" x2="1512" y2="63.595" gradientUnits="userSpaceOnUse">
<stop stop-color="#EE7568"/>
<stop offset="1"/>
</linearGradient>
<linearGradient id="paint13_linear_131_669" x1="8.65401e-06" y1="48.6949" x2="1512" y2="48.6947" gradientUnits="userSpaceOnUse">
<stop stop-color="#EE7568"/>
<stop offset="1"/>
</linearGradient>
</defs>
</svg>
