<?xml version="1.0" encoding="utf-8"?>
<!-- Generator: Adobe Illustrator 27.0.0, SVG Export Plug-In . SVG Version: 6.00 Build 0)  -->
<svg version="1.1" id="Слой_1" xmlns="http://www.w3.org/2000/svg" xmlns:xlink="http://www.w3.org/1999/xlink" x="0px" y="0px"
	 viewBox="0 0 1000 1000" style="enable-background:new 0 0 1000 1000;" xml:space="preserve">
<style type="text/css">
	.st0{fill:url(#SVGID_1_);}
	.st1{fill:url(#SVGID_00000007391589926451739170000009753425463909176741_);}
	.st2{fill:url(#SVGID_00000072251451832800090980000011437546509953284245_);}
	.st3{fill:none;}
</style>
<linearGradient id="SVGID_1_" gradientUnits="userSpaceOnUse" x1="19.4764" y1="-11.0557" x2="335.2469" y2="957.307">
	<stop  offset="0" style="stop-color:#1EDD18"/>
	<stop  offset="1" style="stop-color:#00C7FC"/>
</linearGradient>
<path class="st0" d="M347.6,686.9c0,168.6-136.7,305.3-305.3,305.3H29.4V7.8h313.4v444.3l2,99.3l2.7,134.1L347.6,686.9z"/>
<linearGradient id="SVGID_00000101088639714689533610000004869681766777720756_" gradientUnits="userSpaceOnUse" x1="313.6968" y1="483.2345" x2="610.332" y2="529.1651">
	<stop  offset="0" style="stop-color:#1EDD18"/>
	<stop  offset="1" style="stop-color:#00C7FC"/>
</linearGradient>
<path style="fill:url(#SVGID_00000101088639714689533610000004869681766777720756_);" d="M717.6,347.4
	c0,187.5-152,339.5-339.5,339.5h-30.5l0-1.4l-2.7-134.1l-2-99.3v-3.4h273.4C672.2,448.8,717.6,403.4,717.6,347.4z"/>
<linearGradient id="SVGID_00000139996992226083421010000011220762293522976418_" gradientUnits="userSpaceOnUse" x1="879.5513" y1="731.3907" x2="308.4156" y2="-0.9526">
	<stop  offset="0" style="stop-color:#1EDD18"/>
	<stop  offset="1" style="stop-color:#00C7FC"/>
</linearGradient>
<path style="fill:url(#SVGID_00000139996992226083421010000011220762293522976418_);" d="M955.8,347.4
	c0,187.5-152,339.5-339.5,339.5H378.1c187.5,0,339.5-152,339.5-339.5c0-56-45.4-101.4-101.4-101.4H342.8V7.8h273.4
	C803.7,7.8,955.8,159.8,955.8,347.4z"/>
<path class="st3" d="M717.6,347.4c0,187.5-152,339.5-339.5,339.5c-10.3,0-20.5-0.5-30.5-1.4l-2.7-134.1l-2-99.3V246h273.4
	C672.2,246,717.6,291.3,717.6,347.4z"/>
</svg>
