<?xml version="1.0" standalone="no"?>
<!DOCTYPE svg PUBLIC "-//W3C//DTD SVG 20010904//EN"
 "http://www.w3.org/TR/2001/REC-SVG-20010904/DTD/svg10.dtd">
<svg version="1.0" xmlns="http://www.w3.org/2000/svg"
 width="425.000000pt" height="425.000000pt" viewBox="0 0 425.000000 425.000000"
 preserveAspectRatio="xMidYMid meet">
<metadata>
Created by potrace 1.14, written by Peter Selinger 2001-2017
</metadata>
<g transform="translate(0.000000,425.000000) scale(0.100000,-0.100000)"
fill="#000000" stroke="none">
<path d="M2205 3098 c-8 -26 -210 -702 -512 -1713 l-68 -230 -3 247 -2 247
-93 28 c-474 149 -847 269 -847 274 0 3 210 73 468 155 l467 150 3 252 c1 139
-1 252 -5 252 -5 -1 -359 -130 -788 -289 l-780 -287 -3 -231 -2 -230 792 -292
793 -291 210 0 210 0 87 298 c125 424 488 1654 490 1661 1 3 5 -106 8 -244 l5
-249 460 -148 c253 -80 469 -149 480 -152 10 -3 17 -8 14 -11 -3 -2 -218 -72
-478 -154 -260 -83 -475 -152 -477 -154 -3 -2 -3 -114 -2 -249 l3 -245 745
273 c410 150 764 281 788 290 l42 16 -2 226 -3 226 -795 293 -795 293 -203 0
c-153 0 -204 -3 -207 -12z"/>
</g>
</svg>
